<svg xmlns:xlink="http://www.w3.org/1999/xlink" data-v-6518f294="" data-v-37c5cafc="" xmlns="http://www.w3.org/2000/svg" viewBox="0 0 674 273" width="674"  height="273"><g data-v-6518f294="" data-v-37c5cafc="" fill="#d63550"><path data-v-6518f294="" data-v-37c5cafc="" d="M235.5,116a128.51,128.51,0,1,1-90.86,37.64A127.66,127.66,0,0,1,235.5,116m0-8A136.5,136.5,0,1,0,372,244.5,136.5,136.5,0,0,0,235.5,108Z" transform="translate(-99 -108)" fill="#d63550"></path><circle data-v-6518f294="" data-v-37c5cafc="" cx="136.5" cy="136.5" r="117.5" style="stroke-linecap: round; stroke-miterlimit: 10;" stroke="#d63550" fill="none" stroke-width="7.5px"></circle><g data-v-6518f294="" data-v-37c5cafc="" fill="#d63550"><path data-v-6518f294="" data-v-37c5cafc="" d="M68.4731 174.077C65.5084 170.199 64 164.434 64 156.729H71.6979C71.6979 162.337 72.5821 166.53 74.2985 169.36C76.015 172.191 79.0317 173.606 83.2968 173.606C87.9259 173.606 91.0467 171.876 92.6591 168.469C94.2715 165.01 95.1037 159.454 95.1037 151.75C95.1037 146.456 94.7396 142.263 94.0114 139.171C93.2832 136.079 92.0349 133.877 90.3185 132.462C88.6021 131.099 86.3135 130.366 83.4008 130.366C78.8237 130.366 75.1307 132.724 72.3221 137.494H65.8725V92.891H99.0566L98.9526 100.229H72.6861L72.27 130.104C75.2868 126.278 79.6559 124.391 85.3253 124.391C91.4628 124.391 95.8839 126.644 98.5885 131.152C101.345 135.659 102.698 142.211 102.698 150.859C102.698 160.503 101.137 167.736 98.0684 172.662C94.9996 177.537 89.9024 180 82.8807 180C76.327 179.843 71.4898 177.904 68.4731 174.077Z" fill="#d63550"></path><path data-v-6518f294="" data-v-37c5cafc="" d="M114.817 154.58V117.158C114.817 100.386 121.578 92 135.05 92C148.521 92 155.491 100.386 155.491 117.158V154.528C155.491 162.547 153.93 168.784 150.757 173.239C147.585 177.694 142.383 179.948 135.05 179.948C121.578 179.948 114.817 171.509 114.817 154.58ZM144.776 168.784C146.648 165.482 147.637 160.922 147.637 155.209V116.634C147.637 110.816 146.7 106.309 144.828 103.059C142.955 99.8094 139.731 98.1846 135.102 98.1846C130.472 98.1846 127.3 99.8094 125.479 103.059C123.607 106.309 122.67 110.868 122.67 116.634V155.209C122.67 167.578 126.831 173.815 135.102 173.815C139.627 173.815 142.851 172.138 144.776 168.784Z" fill="#d63550"></path><path data-v-6518f294="" data-v-37c5cafc="" d="M169.326 154.58V117.158C169.326 100.386 176.088 92 189.559 92C203.03 92 210 100.386 210 117.158V154.528C210 162.547 208.44 168.784 205.267 173.239C202.094 177.694 196.893 179.948 189.559 179.948C176.088 179.948 169.326 171.509 169.326 154.58ZM199.285 168.784C201.158 165.482 202.146 160.922 202.146 155.209V116.634C202.146 110.816 201.21 106.309 199.337 103.059C197.465 99.8094 194.24 98.1846 189.611 98.1846C184.982 98.1846 181.809 99.8094 179.989 103.059C178.116 106.309 177.18 110.868 177.18 116.634V155.209C177.18 167.578 181.341 173.815 189.611 173.815C194.136 173.815 197.361 172.138 199.285 168.784Z" fill="#d63550"></path></g></g><g data-v-6518f294="" data-v-37c5cafc="" fill="#d63550"><path data-v-6518f294="" data-v-37c5cafc="" d="M324.45 176.092C320.994 171.009 319.295 163.999 319.295 155.061L319.295 118.607C319.295 109.435 320.994 102.308 324.45 97.401 327.906 92.435 333.94 89.981 342.61 89.981 350.46 89.981 356.084 92.201 359.423 96.641 362.762 101.081 364.403 107.566 364.403 115.978L364.403 121.528 356.201 121.528 356.201 116.212C356.26 112.648 355.967 109.026 355.206 105.521 354.678 103.009 353.273 100.731 351.222 99.153 349.289 97.634 346.418 96.875 342.727 96.875 338.744 96.875 335.639 97.693 333.53 99.387 331.363 101.139 329.84 103.535 329.196 106.222 328.375 109.902 327.965 113.641 328.082 117.38L328.082 156.404C328.082 163.473 329.137 168.672 331.304 171.885 333.472 175.098 337.279 176.734 342.727 176.734 348.175 176.734 351.69 175.098 353.506 171.827 355.322 168.555 356.26 163.531 356.26 156.813L356.26 150.796 364.461 150.796 364.461 156.229C364.461 164.992 362.821 171.71 359.599 176.501 356.377 181.291 350.695 183.628 342.727 183.628 333.882 183.686 327.848 181.174 324.45 176.092Z" fill="#d63550"></path><path data-v-6518f294="" data-v-37c5cafc="" d="M404.276 89.425H413.603L433.641 183.575H424.915L420.222 158.372H397.718L392.964 183.575H384.359L404.276 89.425ZM419.079 151.951 409.03 101.186 399.041 151.951H419.079Z" fill="#d63550"></path><path data-v-6518f294="" data-v-37c5cafc="" d="M458.24 177.072C454.397 172.59 452.268 166.457 451.736 158.614L459.423 156.314C460.133 162.86 461.611 167.873 463.858 171.411 466.105 174.949 469.831 176.659 475.035 176.659 483.727 176.659 488.103 172.177 488.103 163.273 488.162 159.734 487.217 156.255 485.442 153.248 483.609 150.358 480.711 147.056 476.749 143.34L460.369 127.714C457.649 125.295 455.461 122.347 453.923 119.104 452.563 115.919 451.854 112.499 451.913 109.078 451.913 102.769 453.806 97.874 457.59 94.395 461.374 90.915 466.46 89.205 472.906 89.205 479.766 89.205 485.029 91.033 488.695 94.69 492.361 98.346 494.49 104.361 495.14 112.617L487.689 114.563C487.217 108.312 485.915 103.653 483.727 100.646 481.54 97.638 477.933 96.046 472.906 96.105 468.944 96.105 465.75 97.107 463.385 99.171 461.02 101.235 459.837 104.243 459.837 108.312 459.778 110.73 460.31 113.088 461.315 115.271 462.617 117.688 464.331 119.929 466.342 121.757L482.722 137.149C486.566 140.687 489.936 144.815 492.657 149.297 495.022 153.366 496.264 158.025 496.264 162.742 496.264 169.465 494.313 174.654 490.41 178.31 486.507 181.967 481.362 183.795 474.916 183.795 467.584 183.736 462.084 181.495 458.24 177.072Z" fill="#d63550"></path><path data-v-6518f294="" data-v-37c5cafc="" d="M519.182 182.914H527.962V89.463H519.182V182.914Z" fill="#d63550"></path><path data-v-6518f294="" data-v-37c5cafc="" d="M560.571 89.339 590.491 162.082V89.339H598.091V182.968H591.808L561.769 109.45V182.968H554.109V89.339H560.571Z" fill="#d63550"></path><path data-v-6518f294="" data-v-37c5cafc="" d="M627.813 175.923C624.246 171.024 622.433 164.085 622.433 155.162V117.197C622.433 108.333 624.246 101.509 627.872 96.786 631.497 92.062 637.579 89.729 646.117 89.729 654.655 89.729 660.503 92.12 664.129 96.844 667.754 101.568 669.567 108.391 669.567 117.197V155.279C669.567 164.201 667.813 171.141 664.246 175.981 660.678 180.822 654.655 183.271 646.117 183.271 637.521 183.271 631.439 180.822 627.813 175.923ZM657.637 171.491C659.742 168.225 660.795 163.443 660.795 157.086V115.623C660.795 109.324 659.742 104.542 657.695 101.393 655.649 98.244 651.731 96.669 646.117 96.669 640.503 96.669 636.468 98.244 634.304 101.334 632.14 104.425 631.146 109.207 631.146 115.623V157.086C631.146 163.501 632.199 168.283 634.304 171.549 636.409 174.815 640.327 176.389 646.117 176.389 651.731 176.389 655.591 174.756 657.637 171.491Z" fill="#d63550"></path></g></svg>